# xmcd
#
# Track frame offsets: 
#        150
#        18235
#        32234
#        45378
#        61062
#        79362
#        97534
#        113381
#        127819
#        143446
#        161208
#        178948
#        194958
#        213048
#        231092
#        247560
#        261537
#        276355
#        316258
#        325060
#
# Disc length: 4554 seconds
#
# Revision: 0
# Processed by: cddbd v1.5.2PL0 Copyright (c) Steve Scherf et al.
# Submitted via: ExactAudioCopy v1.0b3
#
DISCID=0711c814
DTITLE=Various Artist - Trance The Vocal Session Vol. 13 - CD 1
DYEAR=1900
DGENRE=
TTITLE0=Mr. Sam Feat. Kirsty Hawkshaw - Split (Mr. Sam Video Interpret
TTITLE0=ation)
TTITLE1=DJ Tatana - Silence (Radio Edit)
TTITLE2=4 Strings - Take Me Away (Into The Night) 2006 (Ron Van Den Be
TTITLE2=uken Edit)
TTITLE3=CJ Stone - Storm (Radio Mix)
TTITLE4=Duderstadt And Anita Kelsey - Smile (Duende Vocal Edit)
TTITLE5=Kuffdam and Plant Feat. Terry Ferminal - The Ones We Loved (Dogz
TTITLE5=illa Mix Edit)
TTITLE6=Cosmic Gate - Should've Known (Radio Edit)
TTITLE7=Kyau Vs. Albert - Are You Fine? (Original Radio Mix)
TTITLE8=Ronski Speed - The Space We Are (Original Radio Mix)
TTITLE9=Joni Feat. Kate Smith - Undivided (Radio Edit)
TTITLE10=Ramon Zerano - Today (Mainfield Radio Cut)
TTITLE11=DJ Dean - If I Could Be You (Radio Mix)
TTITLE12=Apollo Vs. The MacKenzie - All I Need 2006 (Megara Vs. DJ Lee
TTITLE12=Remix Edit)
TTITLE13=Cosmic Culture - Northern Star (Radio Edit)
TTITLE14=Melanie Flash - Halfway To Heaven (Radio Edit)
TTITLE15=Liz Kay - When Love Becomes A Lie (Cascada Radio Mix)
TTITLE16=Clubbticket - Sunshine
TTITLE17=Jose Amnesia Feat. Jennifer Rene - Louder (Original Mix)
TTITLE18=Chakra - Love Shines Through
TTITLE19=Alex Bartlett - Amnesia 2006 (Marin Roth Remix Short Edit)
EXTD=
EXTT0=
EXTT1=
EXTT2=
EXTT3=
EXTT4=
EXTT5=
EXTT6=
EXTT7=
EXTT8=
EXTT9=
EXTT10=
EXTT11=
EXTT12=
EXTT13=
EXTT14=
EXTT15=
EXTT16=
EXTT17=
EXTT18=
EXTT19=
PLAYORDER=
